<svg viewBox="0 0 99 99" height="99" width="99" xmlns="http://www.w3.org/2000/svg">,,<g transform="matrix(4.125,0,0,4.125,0,0)"><path d="M20.5,6.5a1,1,0,0,1-1,1H4.5a1,1,0,0,1-1-1v-1a1,1,0,0,1,1-1h15a1,1,0,0,1,1,1Z" fill="none" stroke="#000" stroke-linecap="round" stroke-linejoin="round"></path><path d="M20.5,12.5a1,1,0,0,1-1,1H4.5a1,1,0,0,1-1-1v-1a1,1,0,0,1,1-1h15a1,1,0,0,1,1,1Z" fill="none" stroke="#000" stroke-linecap="round" stroke-linejoin="round"></path><path d="M20.5,18.5a1,1,0,0,1-1,1H4.5a1,1,0,0,1-1-1v-1a1,1,0,0,1,1-1h15a1,1,0,0,1,1,1Z" fill="none" stroke="#000" stroke-linecap="round" stroke-linejoin="round"></path></g></svg>